<?xml version="1.0" encoding="utf-8"?>
<?xml-stylesheet type="text/xsl" href="rss1.xsl"?>
<rss version="2.0" xmlns:atom="http://www.w3.org/2005/Atom" xmlns:content="http://purl.org/rss/1.0/modules/content/" xmlns:dc="http://purl.org/dc/elements/1.1/" xmlns:media="http://search.yahoo.com/mrss/">
<channel>
 <title>Getty</title>
 <link>http://www.gettyimg.com/</link>
 <atom:link href="http://www.gettyimg.com/" rel="self" type="application/rss+xml" />

 
                <item>
                <title><![CDATA[【Requests】[REQ AUD] - Once Upon a Time TV Show (Lossless)]]></title>
                <link><![CDATA[https://sharemania.us/threads/once-upon-a-time-tv-show-lossless.233628/]]></link>
                <description><![CDATA[<article>
<blockquote class="messageText SelectQuoteContainer ugc baseHtml">
Hello,<br>
<br>
Can anyone please provide me with the below tracks in lossless if possible? <br>
<br>
<span data-s9e-mediaembed="spotify" style="display:inline-block;width:100%;max-width:320px"><span style="display:block;overflow:hidden;position:relative;padding-bottom:125%;padding-bottom:calc(100% + 80px)"><iframe allow="encrypted-media" allowfullscreen="" loading="lazy" scrolling="no" src="https://open.spotify.com/embed/track/02iUmjU3o56u3AYugJVwNV" style="border:0;height:100%;left:0;position:absolute;width:100%"></iframe></span></span><br>
<span data-s9e-mediaembed="spotify" style="display:inline-block;width:100%;max-width:320px"><span style="display:block;overflow:hidden;position:relative;padding-bottom:125%;padding-bottom:calc(100% + 80px)"><iframe allow="encrypted-media" allowfullscreen="" loading="lazy" scrolling="no" src="https://open.spotify.com/embed/track/1RUAQhquhvblFidokNNW98" style="border:0;height:100%;left:0;position:absolute;width:100%"></iframe></span></span><br>
<span data-s9e-mediaembed="spotify" style="display:inline-block;width:100%;max-width:320px"><span style="display:block;overflow:hidden;position:relative;padding-bottom:125%;padding-bottom:calc(100% + 80px)"><iframe allow="encrypted-media" allowfullscreen="" loading="lazy" scrolling="no" src="https://open.spotify.com/embed/track/0OqDnIslvQHrXtqhpEeMYY" style="border:0;height:100%;left:0;position:absolute;width:100%"></iframe></span></span><br>
<br>
<a href="https://listen.tidal.com/album/66992043/track/66992044" target="_blank" class="externalLink" rel="nofollow">https://listen.tidal.com/album/66992043/track/66992044</a> <br>
<br>
Thank you.
<div class="messageTextEndMarker">&nbsp;</div>
</blockquote>
</article>]]></description>
                <author><![CDATA[Lordfunkbox69]]></author>
                </item>

                
                <item>
                <title><![CDATA[【UPSCALED】Loreen - Euphoria [4K AI Upscale | HEVC 10-bit | PCM 24-bit 48 kHz]]]></title>
                <link><![CDATA[https://sharemania.us/threads/loreen-euphoria-4k-ai-upscale-hevc-10-bit-pcm-24-bit-48-khz.233627/]]></link>
                <description><![CDATA[<article>
<blockquote class="messageText SelectQuoteContainer ugc baseHtml">
<img src="https://images2.imgbox.com/80/7b/ZhOdc3vx_o.jpg" class="bbCodeImage LbImage" alt="[​IMG]" data-url="https://images2.imgbox.com/80/7b/ZhOdc3vx_o.jpg" style=""><br>
<br>
<b>Genre: <span style="color: #0059b3">Electronic, Pop</span> <br>
Style: <span style="color: #0059b3">Europop, Euro House</span> <br>
Year: <span style="color: #0059b3">2012</span><br>
Video Source: <span style="color: #0059b3">Master, ProRes 1080p, thanks ilearnedfromthebest</span><br>
Audio Source: <span style="color: #0059b3">Master &amp; Qobuz</span></b><br>
<br>
"<b>Euphoria</b>" is a song performed by Swedish singer Loreen. It was released on 26 February 2012 as the third single (first single internationally) from her debut studio album <i>Heal</i> (2012). The song was written by Thomas G:son, Peter Boström and produced by Boström and SeventyEight. It is best known as Sweden's winning entry at the Eurovision Song Contest 2012 held in Baku, Azerbaijan. The song won the competition with a total of 372 points, at the time the second-highest point total in the contest's history. The song received the highest number of maximum (12) points of any entry in the contest's history with eighteen countries giving the song their top marks.<br>
<br>
"Euphoria" received critical acclaim from most music critics. Commercially, the song was an instant success both in Sweden and in the rest of Europe. It debuted at number twelve in Loreen's home country Sweden, before reaching number one, staying there for six weeks. The song has been certified 10 times Platinum, selling 400,000 copies there. Outside of Sweden, the song peaked at number one in 16 countries across Europe, the most chart-topping positions of any Eurovision winner. The song topped the Euro Digital Songs chart weeks after the competition.<br>
<br>
Television music channels initially used the Melodifestivalen 2012 performance as the official music video. Loreen later confirmed the release of an official music video. Loreen tweeted pictures from the set of the music video which was filmed on 13 June 2012. The video premiered on 5 July on Warner Music Sweden's YouTube channel. The video, filmed in a field on the outskirts of Stockholm, features Loreen dancing in a field of tall grass and eventually snow.<br>
<br>
<b>Release Info</b><br>
The video track is upscaled from 1080p (ProRes) to 4K with Topaz Video AI and encoded to HEVC 10-bit.<br>
The PCM tracks are lossless. Track #1 is from the master, the rest from Qobuz, synced with Audition.<br>
The timed lyrics are synced &amp; edited. Enable the subtitles to see the lyrics.<br>
<br>
<b>This release has 4 audio tracks:</b><br>
Track #1 is the master (24-bit 48 kHz))<br>
Track #2 is the Single version (no sound effects)<br>
Track #3 is the Karaoke version<br>
Track #4 is the Instrumental version<br>
<br>
<div class="ToggleTriggerAnchor bbCodeSpoilerContainer">
<button type="button" class="button bbCodeSpoilerButton ToggleTrigger Tooltip JsOnly" data-target="> .SpoilerTarget"><span>Spoiler: <span class="SpoilerTitle">Media Info</span></span></button>
<div class="SpoilerTarget bbCodeSpoilerText">
<div class="bbCodeBlock bbCodeCode">
<div class="type">Code:</div>
<pre>General
Unique ID                      : 88785285594687551043858605098967781289 (0x42CB6C8C3B852708B29349D1BD7C4FA9)
Complete name                  : Loreen - Euphoria.mkv
Format                         : Matroska
Format version                 : Version 4 / Version 2
File size                      : 600 MiB
Duration                       : 3 min 52 s
Overall bit rate               : 21.7 Mb/s
Frame rate                     : 25.000 FPS
Encoded date                   : 2023-12-08 12:08:56 UTC
Writing application            : mkvmerge v81.0 ('Milliontown') 64-bit
Writing library                : libebml v1.4.4 + libmatroska v1.7.1

Video
ID                             : 1
Format                         : HEVC
Format/Info                    : High Efficiency Video Coding
Format profile                 : Main 10@L5@Main
Codec ID                       : V_MPEGH/ISO/HEVC
Duration                       : 3 min 51 s
Bit rate                       : 15.1 Mb/s
Width                          : 3 840 pixels
Height                         : 2 160 pixels
Display aspect ratio           : 16:9
Frame rate mode                : Constant
Frame rate                     : 25.000 FPS
Color space                    : YUV
Chroma subsampling             : 4:2:0
Bit depth                      : 10 bits
Bits/(Pixel*Frame)             : 0.073
Stream size                    : 419 MiB (70%)
Language                       : English
Default                        : Yes
Forced                         : No
Color range                    : Limited
Color primaries                : BT.709
Transfer characteristics       : BT.709
Matrix coefficients            : BT.709

Audio #1
ID                             : 2
Format                         : PCM
Format settings                : Little / Signed
Codec ID                       : A_PCM/INT/LIT
Duration                       : 3 min 52 s
Bit rate mode                  : Constant
Bit rate                       : 2 304 kb/s
Channel(s)                     : 2 channels
Sampling rate                  : 48.0 kHz
Frame rate                     : 25.000 FPS (1920 SPF)
Bit depth                      : 24 bits
Stream size                    : 63.7 MiB (11%)
Title                          : Master 24-bit 48 kHz
Language                       : English
Default                        : Yes
Forced                         : No

Audio #2
ID                             : 3
Format                         : PCM
Format settings                : Little / Signed
Codec ID                       : A_PCM/INT/LIT
Duration                       : 3 min 52 s
Bit rate mode                  : Constant
Bit rate                       : 1 411.2 kb/s
Channel(s)                     : 2 channels
Sampling rate                  : 44.1 kHz
Frame rate                     : 25.000 FPS (1764 SPF)
Bit depth                      : 16 bits
Stream size                    : 39.0 MiB (7%)
Title                          : Single Version (no sound effects)
Language                       : English
Default                        : No
Forced                         : No

Audio #3
ID                             : 4
Format                         : PCM
Format settings                : Little / Signed
Codec ID                       : A_PCM/INT/LIT
Duration                       : 3 min 52 s
Bit rate mode                  : Constant
Bit rate                       : 1 411.2 kb/s
Channel(s)                     : 2 channels
Sampling rate                  : 44.1 kHz
Frame rate                     : 25.000 FPS (1764 SPF)
Bit depth                      : 16 bits
Stream size                    : 39.0 MiB (7%)
Title                          : Karaoke Version
Language                       : English
Default                        : No
Forced                         : No

Audio #4
ID                             : 5
Format                         : PCM
Format settings                : Little / Signed
Codec ID                       : A_PCM/INT/LIT
Duration                       : 3 min 52 s
Bit rate mode                  : Constant
Bit rate                       : 1 411.2 kb/s
Channel(s)                     : 2 channels
Sampling rate                  : 44.1 kHz
Frame rate                     : 25.000 FPS (1764 SPF)
Bit depth                      : 16 bits
Stream size                    : 39.0 MiB (7%)
Title                          : Instrumental
Language                       : English
Default                        : No
Forced                         : No

Text
ID                             : 6
Format                         : UTF-8
Codec ID                       : S_TEXT/UTF8
Codec ID/Info                  : UTF-8 Plain Text
Duration                       : 2 min 53 s
Bit rate                       : 47 b/s
Frame rate                     : 0.196 FPS
Count of elements              : 34
Stream size                    : 1.01 KiB (0%)
Title                          : Lyrics
Language                       : English
Default                        : No
Forced                         : No
</pre>
</div></div>
</div><br>
<div class="bbCodeBlock bbCodeVfcHH HiddenContent">
<div class="attribution type">Hidden Content:</div>
<blockquote>You must reply before you can see the hidden data contained here.</blockquote>
</div>
<div class="messageTextEndMarker">&nbsp;</div>
</blockquote>
</article>]]></description>
                <author><![CDATA[ADHDerby]]></author>
                </item>

                </channel></rss>